<svg xmlns="http://www.w3.org/2000/svg" viewBox="0 0 640 190" role="img" aria-label="INFO UMKM">
<defs>
 <linearGradient id="b" x1="0" y1="0" x2="1" y2="1"><stop stop-color="#0758b8"/><stop offset="1" stop-color="#0b83d8"/></linearGradient>
 <linearGradient id="o" x1="0" y1="0" x2="1" y2="1"><stop stop-color="#ffb000"/><stop offset="1" stop-color="#f47b00"/></linearGradient>
</defs>
<g transform="translate(18 15)">
 <circle cx="80" cy="80" r="67" fill="#fff" stroke="#dce8f5" stroke-width="5"/>
 <path d="M35 112c8-30 29-48 45-48 16 0 37 18 45 48" fill="none" stroke="url(#b)" stroke-width="15" stroke-linecap="round"/>
 <circle cx="80" cy="51" r="17" fill="url(#b)"/>
 <path d="M49 109c-7-24 0-42 14-51M111 109c7-24 0-42-14-51" fill="none" stroke="url(#o)" stroke-width="13" stroke-linecap="round"/>
 <path d="M18 121c18 22 43 33 62 33s44-11 62-33" fill="none" stroke="#ef3e3e" stroke-width="9" stroke-linecap="round"/>
 <path d="M20 132c18 22 41 31 60 31 18 0 43-9 60-31" fill="none" stroke="#fff" stroke-width="4" opacity=".9"/>
</g>
<text x="178" y="91" font-family="Arial, Helvetica, sans-serif" font-size="58" font-weight="800" fill="#0758b8">INFO</text>
<text x="325" y="91" font-family="Arial, Helvetica, sans-serif" font-size="58" font-weight="800" fill="#f28a00">UMKM</text>
<text x="181" y="125" font-family="Arial, Helvetica, sans-serif" font-size="19" font-weight="600" fill="#52677d">Bersama Membangun Ekonomi Bangsa</text>
</svg>